<svg xmlns="http://www.w3.org/2000/svg" xmlns:xlink="http://www.w3.org/1999/xlink" x="0px" y="0px" viewBox="0 0 403.11 534.74">
<path d="M401.05,533.34H74.29c-39.46,0-71.56-32.1-71.56-71.56s32.1-71.56,71.56-71.56h206.65
c14.08,0,25.53-11.46,25.53-25.53c0-14.08-11.46-25.54-25.53-25.54H171.39c-93,0-168.66-75.66-168.66-168.66
c0-93,75.66-168.66,168.66-168.66h229.66v143.12H171.39c-14.08,0-25.53,11.46-25.53,25.54s11.46,25.53,25.53,25.53h229.66v46.03
H171.39c-39.46,0-71.56-32.1-71.56-71.56c0-39.46,32.1-71.57,71.56-71.57h183.63V47.85H171.39c-67.62,0-122.63,55.01-122.63,122.63
c0,67.61,55.01,122.63,122.63,122.63h109.55c39.46,0,71.56,32.1,71.56,71.57c0,39.46-32.1,71.56-71.56,71.56H74.29
c-14.08,0-25.53,11.46-25.53,25.53s11.46,25.53,25.53,25.53h326.76V533.34z"></path>
</svg>
