<svg xmlns="http://www.w3.org/2000/svg" width="499.365" height="433.365" viewBox="0 0 499.365 433.365"><g transform="translate(-605.817 -134.817)"><path d="M0,0,248,432" transform="translate(856.5 135.5)" fill="none" stroke="#222221" stroke-linecap="round" stroke-width="1"/><path d="M0,0,215,374" transform="translate(838.5 164.5)" fill="none" stroke="#222221" stroke-linecap="round" stroke-width="1"/><path d="M0,0,167,287" transform="translate(839.5 223.5)" fill="none" stroke="#222221" stroke-linecap="round" stroke-width="1"/><path d="M0,0,116,202" transform="translate(839.5 279.5)" fill="none" stroke="#222221" stroke-linecap="round" stroke-width="1"/><path d="M0,0H498" transform="translate(606.5 567.5)" fill="none" stroke="#222221" stroke-linecap="round" stroke-width="1"/><path d="M0,0H395" transform="translate(658.5 538.5)" fill="none" stroke="#222221" stroke-linecap="round" stroke-width="1"/><path d="M0,0H300" transform="translate(706.5 510.5)" fill="none" stroke="#222221" stroke-linecap="round" stroke-width="1"/><path d="M0,0H199" transform="translate(756.5 481.5)" fill="none" stroke="#222221" stroke-linecap="round" stroke-width="1"/><path d="M0,403,232,0" transform="translate(606.5 164.5)" fill="none" stroke="#222221" stroke-linecap="round" stroke-width="1"/><path d="M0,315,181,0" transform="translate(658.5 223.5)" fill="none" stroke="#222221" stroke-linecap="round" stroke-width="1"/><path d="M0,231,133,0" transform="translate(706.5 279.5)" fill="none" stroke="#222221" stroke-linecap="round" stroke-width="1"/><path d="M0,144,83,0" transform="translate(756.5 337.5)" fill="none" stroke="#222221" stroke-linecap="round" stroke-width="1"/></g></svg>